<svg xmlns="http://www.w3.org/2000/svg" width="37" height="32">
<symbol id="icon-Group" viewBox="0 0 37 32">
  <path fill="#f4f4fd" d="M36.571 4.66c-1.36.597-2.809.992-4.32 1.184A7.452 7.452 0 0 0 35.549 1.7a14.992 14.992 0 0 1-4.754 1.815 7.514 7.514 0 0 0-5.477-2.373c-4.151 0-7.493 3.369-7.493 7.499 0 .594.05 1.166.174 1.71C11.766 10.047 6.25 7.06 2.545 2.509a7.547 7.547 0 0 0-1.026 3.79 7.509 7.509 0 0 0 3.33 6.231 7.412 7.412 0 0 1-3.387-.923v.082c0 3.643 2.599 6.67 6.007 7.367a7.474 7.474 0 0 1-1.966.247c-.48 0-.965-.027-1.419-.128.971 2.969 3.728 5.152 7.006 5.223a15.069 15.069 0 0 1-9.296 3.198c-.615 0-1.205-.027-1.794-.103 3.321 2.142 7.257 3.365 11.502 3.365 13.797 0 21.339-11.428 21.339-21.335 0-.331-.011-.651-.027-.969 1.488-1.056 2.738-2.375 3.758-3.893z"/>
</symbol>
</svg>
