<!-- Generated by IcoMoon.io -->
<svg version="1.1" xmlns="http://www.w3.org/2000/svg" width="64" height="64" viewBox="0 0 64 64">
<path d="M63.937 18.816c-0.15-3.401-0.7-5.738-1.488-7.764-0.813-2.15-2.063-4.075-3.701-5.676-1.6-1.625-3.538-2.888-5.664-3.688-2.038-0.788-4.363-1.338-7.764-1.488-3.426-0.163-4.514-0.2-13.203-0.2s-9.777 0.038-13.19 0.188c-3.401 0.15-5.738 0.7-7.764 1.488-2.151 0.813-4.076 2.063-5.676 3.701-1.625 1.6-2.888 3.538-3.688 5.664-0.788 2.038-1.338 4.363-1.488 7.764-0.163 3.426-0.2 4.514-0.2 13.203s0.038 9.777 0.188 13.19c0.15 3.401 0.7 5.738 1.488 7.764 0.813 2.15 2.075 4.076 3.7 5.676 1.6 1.625 3.538 2.888 5.664 3.688 2.038 0.788 4.363 1.338 7.764 1.488 3.413 0.15 4.501 0.188 13.19 0.188s9.777-0.037 13.19-0.188c3.4-0.15 5.738-0.7 7.764-1.488 4.301-1.663 7.702-5.064 9.365-9.364 0.787-2.038 1.338-4.364 1.488-7.764 0.15-3.413 0.188-4.501 0.188-13.19s-0.013-9.777-0.163-13.19zM58.174 44.946c-0.138 3.126-0.663 4.814-1.1 5.939-1.076 2.788-3.288 5.001-6.076 6.076-1.125 0.438-2.825 0.962-5.939 1.1-3.376 0.15-4.388 0.188-12.927 0.188s-9.564-0.037-12.928-0.188c-3.126-0.137-4.813-0.662-5.939-1.1-1.387-0.513-2.65-1.326-3.675-2.388-1.063-1.038-1.875-2.288-2.388-3.676-0.438-1.125-0.963-2.826-1.1-5.938-0.15-3.376-0.188-4.389-0.188-12.928s0.037-9.564 0.188-12.927c0.137-3.126 0.662-4.813 1.1-5.939 0.513-1.388 1.325-2.65 2.401-3.676 1.037-1.063 2.287-1.875 3.675-2.388 1.125-0.438 2.826-0.963 5.939-1.1 3.376-0.15 4.389-0.188 12.927-0.188 8.552 0 9.564 0.038 12.928 0.188 3.126 0.138 4.814 0.663 5.939 1.1 1.387 0.512 2.65 1.325 3.676 2.388 1.062 1.038 1.875 2.288 2.388 3.676 0.438 1.125 0.962 2.825 1.1 5.939 0.15 3.376 0.188 4.388 0.188 12.927s-0.038 9.539-0.188 12.915z"></path>
<path d="M32.119 15.565c-9.076 0-16.441 7.364-16.441 16.441s7.364 16.441 16.441 16.441c9.077 0 16.441-7.364 16.441-16.441s-7.364-16.441-16.441-16.441zM32.119 42.67c-5.888 0-10.665-4.776-10.665-10.664s4.776-10.665 10.665-10.665c5.889 0 10.664 4.776 10.664 10.665s-4.776 10.665-10.665 10.665z"></path>
<path d="M53.048 14.915c0 2.12-1.718 3.838-3.838 3.838s-3.838-1.719-3.838-3.838c0-2.12 1.719-3.838 3.838-3.838s3.838 1.718 3.838 3.838z"></path>
</svg>
