<!-- Generated by IcoMoon.io -->
<svg version="1.1" xmlns="http://www.w3.org/2000/svg" width="64" height="64" viewBox="0 0 64 64">
<path d="M63.984 64v-0.003h0.016v-23.472c0-11.483-2.472-20.328-15.896-20.328-6.453 0-10.784 3.541-12.552 6.899h-0.187v-5.827h-12.728v42.728h13.253v-21.157c0-5.571 1.056-10.957 7.955-10.957 6.798 0 6.899 6.357 6.899 11.315v20.803h13.24z"></path>
<path d="M1.056 21.272h13.269v42.728h-13.269v-42.728z"></path>
<path d="M7.686-0c-4.243 0-7.685 3.443-7.685 7.685s3.443 7.757 7.685 7.757c4.243 0 7.685-3.515 7.685-7.757-0.003-4.243-3.445-7.685-7.685-7.685v0z"></path>
</svg>
