<!-- Generated by IcoMoon.io -->
<svg version="1.1" xmlns="http://www.w3.org/2000/svg" width="64" height="64" viewBox="0 0 64 64">
<path d="M64 12.156c-2.38 1.044-4.916 1.736-7.56 2.072 2.72-1.624 4.796-4.176 5.772-7.252-2.536 1.512-5.336 2.58-8.32 3.176-2.408-2.564-5.84-4.152-9.584-4.152-7.264 0-13.112 5.896-13.112 13.124 0 1.040 0.088 2.040 0.304 2.992-10.908-0.532-20.56-5.76-27.044-13.724-1.132 1.964-1.796 4.212-1.796 6.632 0 4.544 2.34 8.572 5.828 10.904-2.108-0.040-4.176-0.652-5.928-1.616 0 0.040 0 0.092 0 0.144 0 6.376 4.548 11.672 10.512 12.892-1.068 0.292-2.232 0.432-3.44 0.432-0.84 0-1.688-0.048-2.484-0.224 1.7 5.196 6.524 9.016 12.26 9.14-4.464 3.492-10.132 5.596-16.268 5.596-1.076 0-2.108-0.048-3.14-0.18 5.812 3.748 12.7 5.888 20.128 5.888 24.144 0 37.344-20 37.344-37.336 0-0.58-0.020-1.14-0.048-1.696 2.604-1.848 4.792-4.156 6.576-6.812z"></path>
</svg>
